<?xml version="1.0" encoding="UTF-8"?>
<svg xmlns="http://www.w3.org/2000/svg" viewBox="0 0 128 128" width="128" height="128">
<path d="M83 28.92C81.18 31.21 80.34 33.69 77.93 35.68C66.34 45.26 47.25 45.94 33.14 43.71C28.38 42.96 19.96 38.97 16.5 38.9C12.53 38.22 6.72 31.07 8.09 26.84C9.19 23.45 12.39 20.92 15.33 19.08C23.71 13.82 39.44 10.84 48.75 11.59C51.26 11.8 53.78 12.6 56.27 12.98C57.7 13.21 59.28 12.9 60.66 13.35C63.12 14.15 65.76 15.16 68.34 15.91C73.75 17.47 82.91 22.08 83 28.92ZM52.92 58.89C51.36 61.34 49.81 63.79 48.25 66.24C40.37 68.1 29.51 65.48 22.04 62.71C19.36 61.71 16.17 59.22 13.5 58.97C11.22 57.54 8.54 54.38 8.02 51.73C7.65 49.89 8.1 48.49 7.35 46.75C10.47 46.75 12.08 48.85 14.84 49.91C18.67 51.36 22.75 53.09 26.84 53.91C31.88 54.91 37.14 55.54 42.25 56C46.39 56.38 50.5 54.95 54.5 55.75C53.97 56.8 53.44 57.84 52.92 58.89ZM119.04 74.5C118.93 80.44 120.39 85.8 118.69 91.88C114.66 106.34 101.33 116.34 86.25 115.78C81.94 115.62 77.67 114.31 73.81 112.47C72.18 111.7 70.69 110.37 69 110C66.11 108.54 63.97 105.66 62.23 103.02C54.51 91.23 53.06 73.48 63.09 62.34C65.36 59.82 68.03 57.13 70.94 55.27C73.11 53.88 75.75 53.35 77.25 51.35C78.99 52.04 79.12 51.85 80.25 50.35C83.44 51.73 91.04 50.33 95.23 51.02C104.41 52.52 118.62 64.69 119.04 74.5ZM45.92 81.83C45.53 83.92 45.14 86.02 44.75 88.11C37.5 89.23 28.55 87.1 21.78 84.51C18.82 83.39 15.99 81.18 13 80.47C9.05 77.99 6.23 71.54 8.75 67.35C9.87 70.17 13.51 70.8 16.16 72.09C25.03 76.43 35.53 77.35 45.25 78C45.47 79.28 45.69 80.55 45.92 81.83ZM54.13 109.5C47.41 112.1 32.46 109.9 25.6 107.69C22.05 106.54 17.98 103.82 14.5 103.4C9.62 100.79 6.36 94.78 8.75 89.35C10.64 92.76 15.72 93.78 19.16 95.09C23.62 96.8 28.43 98.23 33.27 98.98C38.15 99.75 44.11 98.28 48.75 100C50.54 103.17 52.34 106.33 54.13 109.5Z" fill="#fefefe" fill-rule="evenodd" stroke="#fefefe" stroke-width="0.25" stroke-linejoin="round"/>
<path d="M83 28.92C86.78 35.54 74.25 41.66 69.66 43.41C56.81 48.31 42.26 47.72 29.16 44.59C25.69 43.77 18.48 42.1 16.5 38.9C19.96 38.97 28.38 42.96 33.14 43.71C47.25 45.94 66.34 45.26 77.93 35.68C80.34 33.69 81.18 31.21 83 28.92ZM13.5 58.97C16.17 59.22 19.36 61.71 22.04 62.71C29.51 65.48 40.37 68.1 48.25 66.24C49.81 63.79 51.36 61.34 52.92 58.89C53.11 59.67 53.31 60.46 53.5 61.25C52.54 63.18 51.64 66.24 49.98 67.73C47.48 70 44.09 68.59 41.25 68.5C32.02 68.2 20.5 65.29 13.5 58.97ZM119.04 74.5C121.54 78.56 121.23 85.69 120.52 90.27C117.6 108.9 101.83 121.67 82.66 117.09C78.38 116.07 71.54 113.83 69 110C70.69 110.37 72.18 111.7 73.81 112.47C77.67 114.31 81.94 115.62 86.25 115.78C101.33 116.34 114.66 106.34 118.69 91.88C120.39 85.8 118.93 80.44 119.04 74.5ZM13 80.47C15.99 81.18 18.82 83.39 21.78 84.51C28.55 87.1 37.5 89.23 44.75 88.11C45.14 86.02 45.53 83.92 45.92 81.83C47.02 84.11 46.87 87.76 45.75 90C43.13 90.97 40.37 90.43 37.73 90.02C31.32 89.01 16.97 86.35 13 80.47ZM14.5 103.4C17.98 103.82 22.05 106.54 25.6 107.69C32.46 109.9 47.41 112.1 54.13 109.5C53.34 110.5 52.54 111.5 51.75 112.5C42 112.5 33.24 112.06 24.16 108.59C21.29 107.5 16.17 106.1 14.5 103.4Z" fill="#797979" fill-rule="evenodd" stroke="#797979" stroke-width="0.25" stroke-linejoin="round"/>
</svg>